<svg xmlns="http://www.w3.org/2000/svg" xmlns:xlink="http://www.w3.org/1999/xlink" version="1.1" id="Layer_1" x="0px" y="0px" width="512px" height="512px" viewBox="0 0 512 512" enable-background="new 0 0 512 512" xml:space="preserve">
<g fill="#dddddd">
	<path d="M497.938 430.063L380.469 312.594c-17.5 27.219-40.656 50.375-67.875 67.875l117.469 117.5 c18.75 18.8 49.2 18.8 67.9 0C516.688 479.2 516.7 448.8 497.9 430.063z"/>
	<path d="M384 192C384 86 298 0 192 0S0 86 0 192s85.969 192 192 192S384 298 384 192z M192 336 c-79.406 0-144-64.594-144-144S112.594 48 192 48s144 64.6 144 144S271.406 336 192 336z"/>
	<path d="M80 192h32c0-44.109 35.891-80 80-80V80C130.25 80 80 130.2 80 192z"/>
</g>
</svg>
